# xmcd CD database file
#
# Track frame offsets:
#	150
#	13282
#	25653
#	39243
#	50876
#	66933
#	78035
#	96824
#	111428
#	124073
#	134826
#	147232
#	163579
#	175403
#	188019
#
# Disc length: 2702 seconds
#
# Revision: 0
# Processed by: cddbd v1.5.2PL0 Copyright (c) Steve Scherf et al.
# Submitted via: Feurio! 1.68 - http://www.feurio.com
#
DISCID=d30a8c0f
DTITLE=Percy Sledge - Percy Sledge
DYEAR=1900
DGENRE=
TTITLE0=When A Man Loves A Woman
TTITLE1=Take Time To Know Her
TTITLE2=Warm And Tender Love
TTITLE3=Behind
TTITLE4=Try A Little Tenderness
TTITLE5=Tell It Like It Is
TTITLE6=You Send Me
TTITLE7=Bring It On Home To Me
TTITLE8=My Special Prayer
TTITLE9=(Sittin' On) The Dock Of The Bay
TTITLE10=I've Been Loving You Too Long
TTITLE11=I Don't Want To Be Right (If Loving You Is Wrong)
TTITLE12=Cover Me
TTITLE13=It Tears Me Up
TTITLE14=Make It Good And Make It Last
EXTD=
EXTT0=
EXTT1=
EXTT2=
EXTT3=
EXTT4=
EXTT5=
EXTT6=
EXTT7=
EXTT8=
EXTT9=
EXTT10=
EXTT11=
EXTT12=
EXTT13=
EXTT14=
PLAYORDER=
